<svg xmlns="http://www.w3.org/2000/svg" xmlns:xlink="http://www.w3.org/1999/xlink" viewBox="0 0 200 200"><defs><style>.cls-1{fill:url(#linear-gradient);}.cls-2{fill:#fff;}</style><linearGradient id="linear-gradient" x1="100" y1="202" x2="100" y2="2" gradientTransform="matrix(1, 0, 0, -1, 0, 202)" gradientUnits="userSpaceOnUse"><stop offset="0" stop-color="#04b1a6"/><stop offset="1" stop-color="#00abe0"/></linearGradient></defs><title>rgb-iclicker-student-iconAsset 3</title><g id="Layer_2" data-name="Layer 2"><g id="Layer_1-2" data-name="Layer 1"><circle class="cls-1" cx="100" cy="100" r="100"/><path class="cls-2" d="M61.17,96.74c3.1,1.79,3.1,4.71,0,6.49L47.7,111c-3.1,1.79-5.65.33-5.65-3.26V92.18c0-3.58,2.6-5.05,5.65-3.26Z"/><path class="cls-2" d="M81.17,154.05a5.58,5.58,0,0,1-2.59-.67,5.39,5.39,0,0,1-2.76-4.69V51.31A5.36,5.36,0,0,1,81.16,46a5.43,5.43,0,0,1,2.83.8l78.37,48.41a5.36,5.36,0,0,1,0,9.09L84,153.23A5.3,5.3,0,0,1,81.17,154.05ZM86.54,61v78.12l62.86-39.3Z"/><path class="cls-2" d="M113.14,103.4a6.82,6.82,0,1,0-9.31,2.51,6.81,6.81,0,0,0,9.31-2.51"/></g></g></svg>